<?xml version="1.0" encoding="UTF-8" standalone="no"?>
<!-- Created with Inkscape (http://www.inkscape.org/) -->

<svg
   xmlns:dc="http://purl.org/dc/elements/1.1/"
   xmlns:cc="http://creativecommons.org/ns#"
   xmlns:rdf="http://www.w3.org/1999/02/22-rdf-syntax-ns#"
   xmlns:svg="http://www.w3.org/2000/svg"
   xmlns="http://www.w3.org/2000/svg"
   xmlns:sodipodi="http://sodipodi.sourceforge.net/DTD/sodipodi-0.dtd"
   xmlns:inkscape="http://www.inkscape.org/namespaces/inkscape"
   width="210mm"
   height="210mm"
   viewBox="0 0 210 210"
   version="1.1"
   id="svg8"
   inkscape:version="0.92.2 (5c3e80d, 2017-08-06)"
   sodipodi:docname="slider-mask.svg">
  <defs
     id="defs2" />
  <sodipodi:namedview
     id="base"
     pagecolor="#ffffff"
     bordercolor="#666666"
     borderopacity="1.0"
     inkscape:pageopacity="0.0"
     inkscape:pageshadow="2"
     inkscape:zoom="0.70710678"
     inkscape:cx="242.01363"
     inkscape:cy="362.89484"
     inkscape:document-units="mm"
     inkscape:current-layer="layer1"
     showgrid="false"
     inkscape:window-width="1920"
     inkscape:window-height="1017"
     inkscape:window-x="-8"
     inkscape:window-y="25"
     inkscape:window-maximized="1"
     showguides="false"
     inkscape:guide-bbox="true"
     inkscape:snap-to-guides="false">
    <sodipodi:guide
       position="99.344081,11.505953"
       orientation="0.70710678,0.70710678"
       id="guide4669"
       inkscape:locked="false" />
    <sodipodi:guide
       position="237.04134,1.8708867"
       orientation="0.70710678,0.70710678"
       id="guide1374"
       inkscape:locked="false" />
  </sodipodi:namedview>
  <metadata
     id="metadata5">
    <rdf:RDF>
      <cc:Work
         rdf:about="">
        <dc:format>image/svg+xml</dc:format>
        <dc:type
           rdf:resource="http://purl.org/dc/dcmitype/StillImage" />
        <dc:title></dc:title>
      </cc:Work>
    </rdf:RDF>
  </metadata>
  <g
     inkscape:label="Capa 1"
     inkscape:groupmode="layer"
     id="layer1"
     transform="translate(0,-87)">
    <path
       style="fill:none;stroke:none;stroke-width:0.26458332px;stroke-linecap:butt;stroke-linejoin:miter;stroke-opacity:1"
       d="m 199.24943,247.23442 -88.11876,-88.11877 -51.870336,49.2511 187.977346,86.85591 z"
       id="path4753"
       inkscape:connector-curvature="0" />
    <rect
       style="opacity:0.753;fill:none;fill-opacity:1;fill-rule:nonzero;stroke:none;stroke-width:1.58700001;stroke-linecap:round;stroke-linejoin:miter;stroke-miterlimit:4;stroke-dasharray:none;stroke-dashoffset:0;stroke-opacity:1;paint-order:stroke markers fill"
       id="rect847"
       width="132.29167"
       height="134.40833"
       x="8.4666662"
       y="81.629166"
       ry="12.347839" />
    <path
       id="path1460"
       d="m 79.299892,172.29233 c 0,-4.76932 3.870755,-8.63999 8.648744,-8.63999 4.77795,0 8.631423,3.87067 8.631423,8.63999 0,4.76932 -3.853473,8.63999 -8.631423,8.63999 -4.777989,0 -8.648744,-3.87067 -8.648744,-8.63999 z m 53.568588,0 -14.68815,22.46437 -11.23215,-13.82438 -27.648288,34.56062 h 86.400978 z m 50.11261,-60.48059 V 94.531453 H 1.5389857 V 224.13295 H 18.819164 V 111.81174 Z m 25.92029,17.27998 V 250.05324 H 36.099375 V 129.09172 Z m -17.2802,17.28031 H 53.37959 v 86.40089 h 138.24159 z"
       inkscape:connector-curvature="0"
       style="fill:#ffffff;fill-opacity:1;stroke:none;stroke-width:8.64010048" />
    <path
       style="opacity:1;fill:#ffffff;fill-opacity:1;fill-rule:nonzero;stroke:none;stroke-width:1.93875277;stroke-linecap:round;stroke-linejoin:miter;stroke-miterlimit:4;stroke-dasharray:none;stroke-dashoffset:0;stroke-opacity:1;paint-order:stroke markers fill"
       d="m 47.526212,265.76409 a 10.513584,10.513584 0 0 0 -10.513729,10.51375 10.513584,10.513584 0 0 0 10.513729,10.51304 10.513584,10.513584 0 0 0 10.513082,-10.51304 10.513584,10.513584 0 0 0 -10.513082,-10.51375 z m 37.450887,0 a 10.513584,10.513584 0 0 0 -10.513127,10.51375 10.513584,10.513584 0 0 0 10.513127,10.51304 10.513584,10.513584 0 0 0 10.513738,-10.51304 10.513584,10.513584 0 0 0 -10.513738,-10.51375 z m 37.451491,0 a 10.513584,10.513584 0 0 0 -10.51312,10.51375 10.513584,10.513584 0 0 0 10.51312,10.51304 10.513584,10.513584 0 0 0 10.51367,-10.51304 10.513584,10.513584 0 0 0 -10.51367,-10.51375 z m 37.45141,0 A 10.513584,10.513584 0 0 0 149.36686,276.27784 10.513584,10.513584 0 0 0 159.88,286.79088 10.513584,10.513584 0 0 0 170.39373,276.27784 10.513584,10.513584 0 0 0 159.88,265.76409 Z m 37.45141,0 a 10.513584,10.513584 0 0 0 -10.51307,10.51375 10.513584,10.513584 0 0 0 10.51307,10.51304 10.513584,10.513584 0 0 0 10.51374,-10.51304 10.513584,10.513584 0 0 0 -10.51374,-10.51375 z"
       id="path1264"
       inkscape:connector-curvature="0" />
  </g>
</svg>
